<?xml version="1.0" standalone="no"?>
  <!DOCTYPE svg PUBLIC "-//W3C//DTD SVG 1.1//EN" "http://www.w3.org/Graphics/SVG/1.1/DTD/svg11.dtd" >
  <svg>
  <metadata>
  Created by font-carrier
  </metadata>
  <defs>
  <font id="Hey Comic" horiz-adv-x="907" vert-adv-y="907" >
    <font-face
      
      font-family="Hey Comic"
      
      font-weight="400"
      
      font-stretch="normal"
      
      units-per-em="1000"
      
      ascent="1002"
      
      descent="-269"
      
    />
      <missing-glyph />

      

      
      <glyph glyph-name="uni45" unicode="&#x45;" d="M438 153C363 155 261 153 192 146C190 197 189 247 190 299C257 294 372 289 385 293C413 303 428 435 378 442L192 441L196 601C264 600 433 588 453 593C486 608 487 712 471 740C464 754 454 756 454 756C350 757 214 754 106 749C73 749 41 738 41 705C28 530 29 348 29 173C29 107 33 55 38 39C57-13 105-12 147-8C234-1 313-2 391-8C419-11 440-13 447-11C473-4 479 53 481 100C483 142 477 153 438 153Z"  horiz-adv-x="513" vert-adv-y="1000"  />

      
      <glyph glyph-name="uni46" unicode="&#x46;" d="M439 745C316 758 193 758 70 748C70 748 69 748 69 748C39 743 41 716 41 716C32 533 27 351 32 169C35 102 38 52 41 38C55-24 112-14 158-5C204 3 203 46 203 46C196 127 192 210 188 292C234 294 279 290 324 286C346 284 363 284 369 284C390 291 395 348 398 396C399 419 395 431 391 439C387 444 382 445 382 445C316 451 250 450 184 442C183 496 182 550 183 604C201 602 223 601 243 600C284 596 325 592 356 589C389 585 412 583 421 583C451 589 456 646 459 694C462 740 439 745 439 745Z"  horiz-adv-x="484" vert-adv-y="1000"  />

      
      <glyph glyph-name="uni47" unicode="&#x47;" d="M579 354C576 388 562 385 562 385C562 385 495 386 424 386C354 386 279 386 267 381C241 370 248 315 256 270C263 224 282 224 282 224L418 234C416 189 378 153 325 153C265 155 225 207 204 255C186 297 184 342 186 386C188 427 198 468 216 503C244 556 293 609 354 603C397 599 431 565 431 505C433 480 438 461 460 457C481 451 524 456 542 457C561 459 569 476 571 493C571 530 568 566 557 599C487 801 240 777 126 639C-11 476-13 188 161 56C263-19 409-29 501 63C553 115 580 186 583 259C584 291 582 323 579 354Z"  horiz-adv-x="613" vert-adv-y="1000"  />

      
      <glyph glyph-name="uni48" unicode="&#x48;" d="M491 750C455 753 454 722 454 722C441 614 429 511 423 407C423 405 423 405 423 404L194 405C193 511 191 617 186 724C183 758 113 750 77 748C40 746 44 715 44 715C42 482 30 292 30 101C30 77 29 59 30 51C36-9 94-8 142-5C189-2 192 41 192 41C192 113 193 185 194 257C258 252 363 242 417 241C418 130 419 85 426 42C440-18 498-10 544-2C566 4 577 16 585 28C589 40 589 50 589 50C572 270 574 491 596 709C599 740 528 746 491 750Z"  horiz-adv-x="623" vert-adv-y="1000"  />

      
      <glyph glyph-name="uni49" unicode="&#x49;" d="M189 722C188 755 117 750 80 749C44 748 48 717 48 717C48 717 20 108 28 48C36-13 94-8 141-3C188 1 190 44 190 44L189 722Z"  horiz-adv-x="221" vert-adv-y="1000"  />

      
      <glyph glyph-name="uni4a" unicode="&#x4a;" d="M476 718C470 742 449 755 424 753C401 752 376 742 359 737C335 728 333 699 340 677C364 541 391 399 356 249C327 126 199 107 190 248C187 306 202 379 210 420C214 439 214 456 195 471C164 498 94 510 70 463C29 384 18 265 39 178C65 72 154-13 274-7C399 0 482 102 508 225C541 380 511 579 476 718Z"  horiz-adv-x="549" vert-adv-y="1000"  />

      
      <glyph glyph-name="uni4b" unicode="&#x4b;" d="M479 574C512 607 535 633 541 643C563 679 517 715 479 743C442 771 421 751 421 751C351 674 276 600 200 529C199 594 196 660 193 726C190 758 120 750 83 748C47 744 51 714 51 714C51 714 51 675 51 617C51 457 43 315 37 174C34 110 32 60 32 45C39-15 97-14 143-13C190-9 194 35 194 35C200 136 200 238 201 340C206 344 211 347 215 351C277 242 329 131 379 22C383 12 386 6 389 2C409-27 463-4 505 16C521 25 544 43 539 63C484 195 409 321 328 440C381 485 431 529 479 574Z"  horiz-adv-x="577" vert-adv-y="1000"  />

      
      <glyph glyph-name="uni5a" unicode="&#x5a;" d="M443 503C474 552 504 596 537 632C545 640 544 692 540 722C536 748 538 744 508 744C390 745 275 742 159 750C119 752 88 754 78 752C42 746 43 688 45 642C46 595 74 593 74 593C157 591 241 591 324 592C221 442 111 296 37 134C27 112 26 87 36 28C43-7 60-2 60-2C174 4 303 7 412-8C452-11 482-14 492-12C528-9 533 49 535 95C536 111 529 146 508 146C423 153 318 153 233 151C272 220 312 288 352 356C381 406 412 454 443 503Z"  horiz-adv-x="574" vert-adv-y="1000"  />

      
      <glyph glyph-name="uni58" unicode="&#x58;" d="M608 97C543 200 477 302 408 402C437 442 464 480 487 513C531 572 564 614 571 629C601 679 568 711 532 733C500 752 471 755 444 727C398 666 354 604 311 542C262 610 213 676 162 744C139 773 85 728 56 705C28 682 52 656 52 656C52 656 58 647 69 631C119 554 171 480 221 405C152 299 86 191 24 80C8 47 72 18 105 1C138-15 151 17 151 17C151 17 152 19 155 23C158 27 161 33 167 41C213 119 263 192 311 265C355 200 436 57 467 16C510-38 558-5 596 23C617 46 620 74 608 97Z"  horiz-adv-x="647" vert-adv-y="1000"  />

      
      <glyph glyph-name="uni59" unicode="&#x59;" d="M422 748C385 747 389 710 389 710C389 662 402 587 389 525C364 407 285 384 232 421C162 471 174 623 180 688C181 698 182 707 183 717C184 745 112 748 76 750C54 754 37 736 35 715C-6 444 77 177 345 271C316 171 179 153 105 167C56 176 56 62 81 25C117-28 225-5 266 7C449 79 509 230 524 405C527 441 529 473 531 713C530 752 459 749 422 748Z"  horiz-adv-x="563" vert-adv-y="1000"  />

      
      <glyph glyph-name="uni57" unicode="&#x57;" d="M827 658C810 713 786 733 764 738C740 743 716 732 694 722C661 706 661 656 667 629C683 563 700 472 706 388C720 153 612 118 558 260C514 373 537 476 531 589C526 657 396 664 379 593C366 515 360 437 345 358C313 158 218 101 192 275C173 404 189 538 225 657C232 685 220 702 201 714C181 727 155 733 138 738C119 743 106 737 98 724C43 644 22 479 29 353C36 219 63 68 185 12C276-32 387 22 443 117C537-71 778-17 841 163C897 315 868 524 827 658Z"  horiz-adv-x="896" vert-adv-y="1000"  />

      
      <glyph glyph-name="uni56" unicode="&#x56;" d="M581 744C544 758 521 732 507 702C435 543 373 380 317 215C257 386 203 559 156 734C146 766 79 743 44 732C9 722 20 692 20 692C41 586 71 482 99 378C121 299 146 218 168 153C189 89 206 41 213 27C219 15 227 7 236 2C254-9 368-11 388-1C401 5 404 20 404 20C433 101 461 177 490 250C539 376 617 554 662 649C688 705 624 729 581 744Z"  horiz-adv-x="682" vert-adv-y="1000"  />

      
      <glyph glyph-name="uni54" unicode="&#x54;" d="M521 712C516 758 488 759 488 759L41 744C20 743 27 672 30 635C32 600 52 603 52 603C52 603 121 601 205 599C204 549 202 455 200 358C196 216 191 70 196 42C205-12 262-8 309-3C356 0 358 39 358 39C358 224 354 410 348 595C420 594 479 594 494 598C534 607 527 666 521 712Z"  horiz-adv-x="550" vert-adv-y="1000"  />

      
      <glyph glyph-name="uni55" unicode="&#x55;" d="M202 688C205 766 56 767 46 691C31 599-2 326 81 160C126 72 211 2 320-1C494-6 594 143 622 300C641 417 645 583 608 706C586 779 458 758 465 689C477 594 487 405 459 299C418 129 233 100 192 298C179 357 181 423 184 499Z"  horiz-adv-x="671" vert-adv-y="1000"  />

      
      <glyph glyph-name="uni51" unicode="&#x51;" d="M654 99L595 163C629 225 646 297 646 371C646 470 616 562 562 632C504 708 424 750 339 750C252 750 174 708 116 632C62 562 32 470 32 371C32 275 62 182 116 111C174 35 252-6 339-6C393-6 444 10 489 41C511 14 528-5 537-11C562-26 602 15 635 50C667 83 654 99 654 99ZM339 138C250 138 176 245 176 371C176 499 250 606 339 606C426 606 501 499 501 371C501 340 496 308 488 279L430 341C418 352 369 303 341 276C316 251 329 242 329 242C329 242 360 202 397 154C379 143 360 138 339 138Z"  horiz-adv-x="686" vert-adv-y="1000"  />

      
      <glyph glyph-name="uni52" unicode="&#x52;" d="M512 549C485 684 342 745 222 749C195 750 170 750 145 749C121 752 93 750 74 748C37 746 42 715 42 715C42 715 38 563 34 405C28 245 21 79 26 50C33-12 91-8 137-4C184-1 187 43 187 43C187 84 188 125 188 165C190 163 191 163 191 161C251 88 314 21 393-8C407-13 418-15 422-16C487-33 542 103 481 127C432 141 354 192 312 246C430 298 541 404 512 549ZM189 357C188 432 187 509 186 585C425 605 391 370 189 357Z"  horiz-adv-x="547" vert-adv-y="1000"  />

      
      <glyph glyph-name="uni53" unicode="&#x53;" d="M246 495C228 510 215 527 214 542C208 620 331 666 397 507C403 492 412 481 426 476C464 469 545 519 534 579C512 679 402 746 288 752C154 759-6 669 45 510C89 390 224 354 313 279C337 258 352 233 353 211C354 187 337 158 299 148C283 144 268 145 255 149C198 166 164 232 160 286C161 291 156 314 129 310C103 306 38 272 25 219C22 203 24 186 27 169C50 60 153 1 257-4C330-8 403 9 458 54C533 122 551 234 500 317C445 406 325 429 246 495Z"  horiz-adv-x="561" vert-adv-y="1000"  />

      
      <glyph glyph-name="uni4c" unicode="&#x4c;" d="M435 114C435 129 432 163 413 163C329 162 261 158 194 151C195 341 194 532 192 723C190 756 101 750 64 748C27 747 32 715 32 715C31 681 27 79 31 50C42-4 86-5 127-4C208-4 287 1 358-1C385-2 406-2 412 0C438 8 437 68 435 114Z"  horiz-adv-x="463" vert-adv-y="1000"  />

      
      <glyph glyph-name="uni4d" unicode="&#x4d;" d="M723 722C721 756 651 750 615 749C601 748 582 735 578 723C517 605 452 486 387 370C320 489 255 610 191 731C175 755 103 750 81 749C44 747 49 716 49 716C49 716 24 107 32 48C41-13 99-9 146-3C193 2 195 45 195 45L192 398C249 284 310 171 325 152C350 123 404 122 436 141C450 149 455 161 463 174C485 212 527 291 570 375C566 225 563 76 566 48C575-13 633-9 679-3C726 2 728 45 728 45Z"  horiz-adv-x="761" vert-adv-y="1000"  />

      
      <glyph glyph-name="uni4e" unicode="&#x4e;" d="M617 695C610 756 552 752 505 748C458 743 455 700 455 700L450 308C369 453 285 596 199 738C188 757 95 750 73 748C37 746 40 715 40 715C40 715 23 107 33 46C41-14 100-9 147-3C193 3 194 46 194 46L187 465C243 356 298 255 351 153C383 91 414 42 424 29C453-14 525 1 566 1C604 2 601 33 601 33C601 33 624 635 617 695Z"  horiz-adv-x="643" vert-adv-y="1000"  />

      
      <glyph glyph-name="uni4f" unicode="&#x4f;" d="M339-6C425-6 504 35 562 111C617 182 646 275 646 371C646 470 617 562 562 632C504 708 425 750 339 750C254 750 174 708 116 632C61 562 31 470 31 371C31 275 61 182 116 111C174 35 254-6 339-6ZM339 606C428 606 503 499 503 371C503 245 428 138 339 138C251 138 176 245 176 371C176 499 251 606 339 606Z"  horiz-adv-x="675" vert-adv-y="1000"  />

      
      <glyph glyph-name="uni50" unicode="&#x50;" d="M400 703C349 732 288 746 223 749C198 750 173 750 146 749C124 752 96 750 77 748C40 746 44 715 44 715C44 715 41 563 35 405C31 245 25 79 27 50C34-12 92-8 140-4C186-1 190 43 190 43C190 85 190 127 191 170C266 180 337 210 394 254C544 369 573 605 400 703ZM190 344C190 419 190 509 189 585C422 601 404 360 190 344Z"  horiz-adv-x="545" vert-adv-y="1000"  />

      
      <glyph glyph-name="uni61" unicode="&#x61;" d="M544 516C545 540 476 543 438 545C425 546 416 543 412 540C323 564 230 553 157 502C-48 345 23-24 292-1C322 2 352 8 381 15C398-15 449-9 490-3C536 4 537 35 537 35C527 196 531 355 544 516ZM388 395C383 364 381 329 378 293C375 259 374 224 372 190C124-2 148 491 388 395Z"  horiz-adv-x="580" vert-adv-y="1000"  />

      
      <glyph glyph-name="uni62" unicode="&#x62;" d="M192 499C191 571 191 644 191 716C189 749 107 747 71 745C34 744 38 714 38 714C35 680 24 79 37 47C42 9 68-4 98-6C226-10 357 26 432 116C483 180 500 263 470 337C423 443 297 499 192 499ZM194 164C194 227 193 291 193 354C377 352 356 175 194 164Z"  horiz-adv-x="517" vert-adv-y="1000"  />

      
      <glyph glyph-name="uni63" unicode="&#x63;" d="M404 236C387 239 371 236 364 218C341 153 268 108 219 169C169 234 178 366 245 411C288 444 347 434 357 361C359 345 371 342 406 346C439 351 485 376 485 413C485 441 466 474 451 492C358 604 185 574 103 473C1 350 10 158 123 56C151 32 182 12 218 2C289-19 367-6 426 47C463 79 491 123 497 177C502 220 448 229 404 236Z"  horiz-adv-x="535" vert-adv-y="1000"  />

      
      <glyph glyph-name="uni64" unicode="&#x64;" d="M518 716C517 749 447 748 411 748C374 748 377 715 377 715C377 715 370 632 364 524C254 547 136 498 78 405C6 287 14 118 136 38C206-8 299-13 383 4C404-9 440-6 471-2C517 4 518 48 518 48C511 271 511 494 518 716ZM358 376C355 295 353 229 353 164C126 92 154 450 358 376Z"  horiz-adv-x="554" vert-adv-y="1000"  />

      
      <glyph glyph-name="uni65" unicode="&#x65;" d="M205 533C146 514 103 476 73 429C29 357 21 264 42 187C65 104 122 31 207 4C245-7 288-9 328-1C392 11 478 63 478 134C478 192 397 230 361 177C339 145 309 133 281 135C210 140 186 204 188 268C215 266 260 264 309 262C382 259 459 259 472 264C487 267 493 280 495 297C513 477 367 581 205 533ZM208 366C239 441 338 458 351 369C303 367 256 366 208 366Z"  horiz-adv-x="533" vert-adv-y="1000"  />

      
      <glyph glyph-name="uni66" unicode="&#x66;" d="M433 666C384 690 305 701 245 692C78 667 86 469 86 347C70 346 55 344 39 342C22 339 32 269 37 233C42 197 57 203 57 203C57 203 70 203 90 203C96 77 96-53 96-161C96-214 162-223 201-223C250-222 258-163 258-128C261-48 258 36 248 201C279 200 306 199 331 199C365 198 401 198 409 200C447 209 444 345 409 361C357 361 292 359 240 357C240 391 240 425 241 459C244 581 277 591 390 534C404 529 414 538 422 549C440 576 475 645 433 666Z"  horiz-adv-x="473" vert-adv-y="1000"  />

      
      <glyph glyph-name="uni67" unicode="&#x67;" d="M518 531C510 576 429 560 393 553C372 545 365 534 365 516C252 537 142 494 80 404C50 360 36 311 37 263C41 94 211-2 377 61C373-69 333-85 277-99C239-108 200-102 165-99C141-96 120-92 105-109C86-135 81-176 93-207C106-247 159-259 208-262C318-271 418-235 475-158C539-76 533 98 532 191C531 308 522 424 518 531ZM375 360C378 311 378 271 378 232C152 76 141 459 375 360Z"  horiz-adv-x="570" vert-adv-y="1000"  />

      
      <glyph glyph-name="uni68" unicode="&#x68;" d="M192 496C193 568 196 641 201 714C201 745 131 746 95 748C55 749 47 721 44 692C28 474 26 254 41 44C53-16 110-8 157 1C183 5 202 27 202 52C198 114 195 178 193 241C187 410 375 443 356 240C352 177 344 116 344 54C350-9 407-7 455-4C502-3 506 42 506 42L515 230C540 495 351 585 192 496Z"  horiz-adv-x="550" vert-adv-y="1000"  />

      
      <glyph glyph-name="uni69" unicode="&#x69;" d="M198 451C197 472 128 470 91 470C55 471 58 451 58 451C58 451 48 354 43 252C36 151 34 45 39 26C47-11 106-7 151-3C197 4 199 31 199 31C195 170 195 310 198 451ZM208 583C208 619 175 648 135 648C95 648 62 619 62 583C62 548 95 520 135 520C175 520 208 548 208 583Z"  horiz-adv-x="239" vert-adv-y="1000"  />

      
      <glyph glyph-name="uni6a" unicode="&#x6a;" d="M461 459C456 507 379 503 342 497C318 494 305 475 307 454C308 327 328 185 314 49C296-88 201-97 201 45C201 59 205 92 208 116C212 147 204 172 169 181C118 192 58 190 44 129C27 61 32-28 65-99C114-207 243-247 338-206C518-127 470 235 464 404C463 422 462 440 461 459ZM453 596C453 631 420 660 379 660C339 660 306 631 306 596C306 561 339 532 379 532C420 532 453 561 453 596Z"  horiz-adv-x="504" vert-adv-y="1000"  />

      
      <glyph glyph-name="uni6b" unicode="&#x6b;" d="M513 456C532 490 465 542 444 556C418 575 401 570 382 551C327 490 264 442 197 401C197 507 195 614 194 720C191 753 122 748 85 746C49 743 47 715 47 715C40 506 35 298 35 91C35 68 35 52 36 44C44-16 102-12 149-9C195-3 198 40 198 40C198 107 198 175 198 242C201 243 204 245 208 246C245 186 364 5 411-19C437-33 475 12 504 47C533 84 519 98 519 98C456 158 391 239 339 310C400 355 478 393 513 456Z"  horiz-adv-x="552" vert-adv-y="1000"  />

      
      <glyph glyph-name="uni7a" unicode="&#x7a;" d="M430 541C410 548 90 563 71 559C39 550 43 494 47 447C51 401 75 399 75 399C133 400 192 401 251 401C166 313 88 228 28 131C22 109 25 64 26 38C27 3 43 5 43 5C43 5 373-9 406 0C438 7 437 52 433 98C430 144 406 146 406 146L236 145C301 232 365 316 439 396C452 409 456 537 430 541Z"  horiz-adv-x="475" vert-adv-y="1000"  />

      
      <glyph glyph-name="uni79" unicode="&#x79;" d="M418 553C382 550 386 507 386 507C386 507 384 452 382 369C376 230 206 146 186 318C176 385 191 455 196 519C197 548 126 548 90 550C53 552 44 523 44 523C40 491 36 457 33 423C21 276 57 124 214 90C271 78 331 92 378 144C376 93 383 31 374-14C350-128 210-97 151-75C86-64 60-188 113-218C178-255 257-260 322-249C424-230 488-158 515-73C529-29 530 11 527 516C525 561 455 555 418 553Z"  horiz-adv-x="563" vert-adv-y="1000"  />

      
      <glyph glyph-name="uni78" unicode="&#x78;" d="M546 99C495 161 445 224 395 286C462 360 518 425 528 442C555 487 508 521 468 545C430 569 405 542 405 542L296 412C260 460 224 507 188 556C170 578 116 535 86 514C57 493 76 473 76 473C76 473 130 390 198 293L28 87C11 64 68 24 97 4C126-17 142 5 142 5C142 5 210 79 289 167C310 140 330 114 347 91C382 45 409 12 420 4C459-31 502 6 535 38C568 71 546 99 546 99Z"  horiz-adv-x="578" vert-adv-y="1000"  />

      
      <glyph glyph-name="uni77" unicode="&#x77;" d="M816 523C807 568 738 553 702 545C679 541 671 518 675 499C688 409 708 305 671 219C622 101 522 124 514 303C513 333 513 363 510 391C505 429 489 447 468 456C458 460 445 461 433 462C388 465 332 450 332 396C331 361 330 327 326 294C316 136 192 89 174 289C170 355 178 426 189 501C195 543 124 548 89 553C70 555 60 545 54 535C50 523 46 510 43 497C13 352 7 139 123 43C227-43 340-3 419 76C477-11 596-31 686 17C785 68 823 177 829 277C836 363 827 444 816 523Z"  horiz-adv-x="857" vert-adv-y="1000"  />

      
      <glyph glyph-name="uni76" unicode="&#x76;" d="M449 549C408 549 399 527 389 494C374 441 361 361 338 288C314 212 287 145 265 143C253 142 236 170 222 210C184 315 175 415 173 512C169 559 99 550 62 547C38 546 20 519 22 500C24 347 45 186 135 63C167 19 210-9 264-9C444-9 534 328 547 450C548 462 549 473 548 484C544 531 509 552 449 549Z"  horiz-adv-x="576" vert-adv-y="1000"  />

      
      <glyph glyph-name="uni75" unicode="&#x75;" d="M529 521C529 545 459 547 423 549C385 551 382 527 382 527C370 415 382 304 332 203C279 96 186 145 186 321C186 386 193 446 203 504C206 541 136 545 99 548C76 549 63 534 59 514C40 436 35 356 36 279C38 104 153-78 358 26C370-12 425-8 468-3C515 4 516 34 516 34C512 197 516 359 529 521Z"  horiz-adv-x="561" vert-adv-y="1000"  />

      
      <glyph glyph-name="uni74" unicode="&#x74;" d="M243 149C222 200 232 296 233 347C298 341 356 335 369 338C398 345 398 403 396 449C395 496 373 500 373 500C329 501 286 502 243 503C247 571 253 641 252 714C250 755 180 748 144 746C123 743 106 732 105 714C100 647 97 582 94 506C73 506 52 506 32 505C22 506 18 446 24 404C29 373 35 364 63 362C68 362 73 361 79 361C77 298 74 245 79 193C89 86 141-20 255-35C297-41 347-35 381 0C399 19 409 58 404 92C399 128 378 139 345 127C302 112 263 103 243 149Z"  horiz-adv-x="434" vert-adv-y="1000"  />

      
      <glyph glyph-name="uni73" unicode="&#x73;" d="M325 401C325 383 335 377 350 377C397 376 441 401 442 439C444 535 353 590 253 591C201 592 120 578 70 526C37 491 22 440 30 394C41 335 85 303 135 279C175 260 281 240 297 193C312 148 276 123 238 125C181 128 139 167 119 223C110 252 86 255 67 239C64 237 61 234 59 231C15 183 26 104 73 57C147-17 262-39 356 20C432 68 477 160 434 253C411 301 369 338 316 362C301 370 251 386 218 403C192 417 168 451 213 468C249 481 325 469 325 401Z"  horiz-adv-x="486" vert-adv-y="1000"  />

      
      <glyph glyph-name="uni72" unicode="&#x72;" d="M460 410C452 474 417 521 349 539C292 553 233 538 189 507L188 526C186 549 116 545 80 543C44 541 47 520 47 520C47 520 26 74 34 31C44-13 101-9 148-5C194-1 196 31 196 31L193 257C192 431 302 483 306 401C307 386 306 367 303 344C298 308 302 275 341 270C432 263 470 333 460 410Z"  horiz-adv-x="499" vert-adv-y="1000"  />

      
      <glyph glyph-name="uni71" unicode="&#x71;" d="M373 544C355 545 347 537 342 528C220 521 122 482 70 402C-14 270 43 88 184 41C222 28 263 23 302 23C296-92 293-187 295-210C302-275 369-271 416-267C463-263 465-217 465-217C469 26 467 268 480 510C480 545 410 544 373 544ZM327 386C323 330 317 259 313 184C135 156 147 408 327 386Z"  horiz-adv-x="511" vert-adv-y="1000"  />

      
      <glyph glyph-name="uni70" unicode="&#x70;" d="M345 504C289 532 232 542 181 538C180 542 180 547 179 553C174 589 106 574 69 568C43 563 27 548 27 527C36 356 29-57 32-168C34-232 98-226 145-222C192-217 193-171 193-171C193-1 196 11 196 11C238 18 278 29 314 44C520 132 542 407 345 504ZM192 156C192 156 193 162 192 162C191 247 190 321 190 395C379 393 349 171 192 156Z"  horiz-adv-x="511" vert-adv-y="1000"  />

      
      <glyph glyph-name="uni6f" unicode="&#x6f;" d="M273-7C411-7 524 118 524 269C524 420 411 544 273 544C135 544 22 420 22 269C22 118 135-7 273-7ZM273 396C333 396 381 339 381 269C381 199 333 142 273 142C213 142 166 199 166 269C166 339 213 396 273 396Z"  horiz-adv-x="548" vert-adv-y="1000"  />

      
      <glyph glyph-name="uni6e" unicode="&#x6e;" d="M186 507L186 540C185 563 114 559 78 557C41 555 44 533 44 533C43 507 22 59 31 34C38-9 97-8 144-3C189 1 192 34 192 34L189 244C200 450 376 436 399 302C406 261 399 217 394 170C389 127 382 48 406 17C427-11 473-8 509-3C555 2 558 48 558 68L560 231C560 331 545 398 516 444C447 553 287 550 186 507Z"  horiz-adv-x="601" vert-adv-y="1000"  />

      
      <glyph glyph-name="uni6d" unicode="&#x6d;" d="M480 469C398 571 279 558 190 481L189 546C186 570 116 565 80 563C44 561 48 538 48 538C43 512 35 58 39 34C48-10 106-8 153-3C198 3 200 35 200 35L197 180C212 476 375 426 356 230C353 182 345 133 349 86C354 34 378 1 429 1C466 1 522 12 514 64C510 124 512 182 517 238C537 441 668 485 692 334C707 239 681 147 687 57C691-10 748-10 795-9C831-7 856 1 858 44C866 169 873 302 845 411C797 606 586 607 480 469Z"  horiz-adv-x="907" vert-adv-y="1000"  />

      
      <glyph glyph-name="uni6c" unicode="&#x6c;" d="M193 715C191 749 121 743 84 742C49 741 51 710 51 710C51 710 29 106 36 46C44-13 103-9 149-3C195 1 197 44 197 44L193 715Z"  horiz-adv-x="237" vert-adv-y="1000"  />

      
      <glyph glyph-name="uni21" unicode="&#x21;" d="M38 214C38 191 110 191 146 190C182 190 179 212 179 212C195 341 202 473 202 614C202 663 200 700 198 711C188 756 133 753 87 746C40 740 37 705 37 705C44 541 45 377 38 214ZM189 66C189 107 152 139 106 139C61 139 24 107 24 66C24 27 61-5 106-5C152-5 189 27 189 66Z"  horiz-adv-x="236" vert-adv-y="1000"  />

      
      <glyph glyph-name="uni23" unicode="&#x23;" d="M640 266C618 266 595 266 573 266C578 284 584 302 589 320C620 322 641 324 650 326C700 334 693 377 687 412C681 447 646 446 646 446L629 445C636 465 643 485 650 505C657 528 589 548 555 560C520 570 515 547 515 547C515 547 495 501 471 434L352 427L375 508C381 533 312 548 278 558C242 567 238 544 238 544C238 544 219 489 193 417L80 409C53 406 59 353 63 326C65 299 91 303 91 303C91 303 116 304 156 306C149 286 142 266 136 247C107 246 77 244 50 240C21 237 30 184 33 158C37 130 63 135 63 135C63 135 76 136 98 138C86 97 77 67 76 57C71 11 128-3 173-11C219-21 231 11 231 11L269 143C289 143 309 144 331 144C344 144 357 144 370 144C356 100 349 66 348 55C343 8 400-3 446-9C493-17 502 13 502 13C514 57 526 100 538 144C586 144 624 143 635 144C687 150 685 193 681 228C678 264 640 266 640 266ZM303 259L318 310C353 311 391 312 426 313C419 296 414 279 408 263C373 262 338 260 303 259Z"  horiz-adv-x="739" vert-adv-y="1000"  />

      
      <glyph glyph-name="uni3f" unicode="&#x3f;" d="M349 745C251 759 113 720 58 625C17 558 4 460 64 406C113 363 206 428 179 475C145 535 180 576 225 608C293 657 445 641 402 544C380 494 288 435 249 410C198 374 156 340 140 276C127 209 170 174 231 173C249 173 267 172 268 195C268 216 278 237 303 259C375 323 457 349 517 422C573 485 574 577 530 646C491 707 421 737 349 745ZM283 66C283 107 245 139 201 139C155 139 119 107 119 66C119 27 155-5 201-5C245-5 283 27 283 66Z"  horiz-adv-x="593" vert-adv-y="1000"  />

      
      <glyph glyph-name="uni32" unicode="&#x32;" d="M446 153C381 156 316 156 251 153C330 239 426 310 456 427C476 506 465 591 402 645C322 714 192 696 118 630C49 568 12 468 40 373C66 303 193 356 190 392C189 400 185 409 182 416C170 449 181 483 200 507C242 557 331 555 308 474C299 443 276 409 262 393C193 315 114 266 63 179C30 119 33 2 73-5C98-9 139-8 163-6C191-5 229-5 267-6C305-7 343-10 375-12C406-14 429-16 436-14C465-8 467 52 467 101C467 113 465 153 446 153Z"  horiz-adv-x="500" vert-adv-y="1000"  />

      
      <glyph glyph-name="uni31" unicode="&#x31;" d="M316 652C311 687 184 704 172 682C172 682 140 633 104 585C86 560 68 535 53 516C38 496 28 481 26 476C19 453 68 420 108 394C126 382 137 379 145 378C145 376 145 374 144 372C140 299 135 223 133 162C131 102 131 56 134 42C143-13 200-8 247-4C294 2 295 41 295 41C293 246 300 449 316 652Z"  horiz-adv-x="341" vert-adv-y="1000"  />

      
      <glyph glyph-name="uni33" unicode="&#x33;" d="M375 379C449 517 413 657 292 687C197 710 98 669 53 595C40 573 32 548 37 523C49 482 90 458 128 458C135 458 142 460 147 462C163 469 163 483 170 496C187 530 217 547 239 545C305 539 262 436 196 436C185 436 177 425 172 410C165 389 157 306 185 298C188 296 193 295 197 294C200 294 203 295 203 295C203 295 205 294 210 295C279 290 293 239 273 201C238 137 170 149 122 205C108 221 90 215 79 207C59 190 31 162 23 125C19 107 23 92 32 79C70 22 153-4 221-5C332-5 421 98 432 197C439 261 414 332 375 379Z"  horiz-adv-x="460" vert-adv-y="1000"  />

      
      <glyph glyph-name="uni34" unicode="&#x34;" d="M494 585C493 612 493 641 488 674C487 683 480 689 473 693C444 701 395 694 367 692C338 689 331 679 318 661C245 561 170 475 93 391C63 357 39 332 34 323C22 303 35 229 37 211C42 174 55 179 55 179C150 177 243 172 335 172C334 106 334 57 336 43C345-13 403-8 449-4C496 1 498 41 498 41ZM255 333C285 370 315 407 343 445C341 407 339 371 339 335C311 335 283 334 255 333Z"  horiz-adv-x="534" vert-adv-y="1000"  />

      
      <glyph glyph-name="uni35" unicode="&#x35;" d="M412 395C355 468 257 498 146 480C146 501 146 522 146 541C210 531 274 525 338 523C374 522 401 523 409 525C442 534 449 606 444 653C442 671 435 679 428 683C423 686 409 687 393 686C296 681 204 684 112 691C67 694 43 712 41 662C38 597 40 454 31 428C21 400 36 338 67 334C81 334 114 331 126 334C159 344 207 349 246 339C301 325 315 269 304 223C293 184 269 159 237 154C203 148 172 170 153 194C103 248 38 187 40 126C42 70 81 34 127 10C197-28 279-23 355 32C466 116 496 284 412 395Z"  horiz-adv-x="491" vert-adv-y="1000"  />

      
      <glyph glyph-name="uni37" unicode="&#x37;" d="M463 634C461 671 443 667 443 667C443 667 354 672 261 677C168 683 71 691 54 687C19 680 19 622 21 575C23 529 49 526 49 526C126 524 205 523 283 523C283 522 283 522 283 521C255 478 220 418 190 353C159 289 133 221 115 164C97 108 87 66 86 51C83-3 140-10 187-15C211-18 225-10 232-3C237 2 239 6 241 9C243 12 243 14 243 14C283 193 354 366 452 520C453 522 454 524 454 526C470 532 465 599 463 634Z"  horiz-adv-x="493" vert-adv-y="1000"  />

      
      <glyph glyph-name="uni39" unicode="&#x39;" d="M304 220C286 177 224 127 184 104C165 93 162 68 171 52C185 26 223 7 258 1C279-2 295 0 309 7C410 55 490 226 512 364C539 527 451 681 280 691C258 693 236 691 214 687C94 661 23 553 19 439C13 285 133 195 304 220ZM234 362C179 377 166 468 211 513C231 533 258 538 284 534C417 507 363 330 234 362Z"  horiz-adv-x="555" vert-adv-y="1000"  />

      
      <glyph glyph-name="uni38" unicode="&#x38;" d="M422 378C423 378 423 379 424 379C583 529 421 698 264 690C173 685 82 654 47 561C20 491 36 407 107 345C51 296 15 236 23 160C39 55 151-5 242-10C452-21 603 245 422 378ZM258 571C305 577 352 530 279 464C264 450 243 441 226 432C148 475 193 570 258 571ZM183 200C198 241 242 276 279 278C348 243 343 149 274 124C223 106 161 136 183 200Z"  horiz-adv-x="532" vert-adv-y="1000"  />

      
      <glyph glyph-name="uni36" unicode="&#x36;" d="M239 463C261 502 287 537 318 569C327 578 332 589 332 600C333 610 329 621 324 630C314 651 295 670 281 682C272 691 256 693 246 687C225 675 204 656 185 635C95 536 13 364 26 220C38 92 142-1 263-8C285-10 307-8 329-4C449 22 520 130 524 244C530 398 410 488 239 463ZM309 321C364 306 377 215 332 170C312 150 285 145 259 149C126 176 180 353 309 321Z"  horiz-adv-x="555" vert-adv-y="1000"  />

      
      <glyph glyph-name="uni40" unicode="&#x40;" d="M560 689C460 735 342 730 246 684C119 622 48 497 43 364C39 246 91 129 190 57C299-21 448-38 572 37C608 60 640 93 640 133C639 146 634 156 626 163C708 206 742 310 742 396C743 518 675 634 560 689ZM294 162C240 191 211 247 202 302C201 306 201 310 200 314L200 315C226 239 282 195 352 179C392 171 431 174 467 185C476 179 482 171 491 167C423 138 355 128 294 162ZM418 312C301 281 342 414 422 382C420 365 418 327 418 312ZM567 302C567 301 566 301 566 300L566 299C566 299 566 299 566 299C565 299 565 299 565 299C565 299 565 299 565 299C565 299 565 299 565 299L564 300C560 360 562 396 566 433C567 455 566 472 560 484C554 497 545 506 534 513C514 525 488 526 470 528C459 529 451 522 445 513C369 524 258 516 221 442C263 529 353 581 440 578C591 572 640 411 567 302Z"  horiz-adv-x="791" vert-adv-y="1000"  />

      
      <glyph glyph-name="uni24" unicode="&#x24;" d="M325 401C325 383 335 377 350 377C397 376 441 401 442 439C444 524 371 577 285 588L285 592C288 630 288 671 286 678C281 692 252 689 229 686C206 683 205 673 205 673L208 588C161 582 107 564 70 526C37 491 22 440 30 394C41 335 85 303 135 279C175 260 281 240 297 193C312 148 276 123 238 125C181 128 139 167 119 223C110 252 86 255 67 239C64 237 61 234 59 231C15 183 26 104 73 57C105 24 146 2 189-8C184-41 179-76 180-83C184-96 213-97 236-98C260-98 262-89 262-89L268-12C298-8 328 2 356 20C432 68 477 160 434 253C411 301 369 338 316 362C301 370 251 386 218 403C192 417 168 451 213 468C249 481 325 469 325 401Z"  horiz-adv-x="486" vert-adv-y="1000"  />

      
      <glyph glyph-name="uni25" unicode="&#x25;" d="M503 662C519 693 454 724 422 740C389 757 376 727 376 727C318 627 273 555 212 438C172 363 133 284 104 222C73 158 54 110 49 94C32 31 87 14 132 0C155-5 171 1 181 10C192 18 197 29 197 29C287 245 390 457 503 662ZM144 747C85 747 37 699 37 639C37 581 85 532 144 532C203 532 252 581 252 639C252 699 203 747 144 747ZM165 639C165 628 156 620 144 620C132 620 124 628 124 639C124 652 132 660 144 660C156 660 165 652 165 639ZM452 214C393 214 344 166 344 106C344 47 393-2 452-2C512-2 560 47 560 106C560 166 512 214 452 214ZM473 106C473 95 464 85 452 85C441 85 431 95 431 106C431 118 441 127 452 127C464 127 473 118 473 106Z"  horiz-adv-x="597" vert-adv-y="1000"  />

      
      <glyph glyph-name="uni26" unicode="&#x26;" d="M598 427C484 435 367 418 260 377C242 371 288 261 311 259C340 268 379 274 414 279C414 279 414 278 414 278C435 253 437 227 427 204C410 165 369 144 325 140C140 126 135 327 270 409C294 424 329 435 359 438C383 440 393 430 400 455C406 478 412 517 413 526C413 533 410 536 410 536C383 559 357 584 332 608C332 608 332 608 333 608C431 604 533 600 551 603C588 609 586 662 583 705C581 746 554 749 554 749C414 750 273 748 133 743C117 748 119 676 121 644C123 608 208 565 215 521C103 465 24 345 35 227C51 79 194-8 332-6C510-4 620 143 578 282C582 282 585 282 587 282C611 287 616 339 618 381C619 394 617 427 598 427Z"  horiz-adv-x="662" vert-adv-y="1000"  />

      
      <glyph glyph-name="uni28" unicode="&#x28;" d="M359 637C390 655 338 726 313 754C302 767 284 770 267 759C142 678 43 543 33 378C22 195 113 59 244-15C272-29 303-35 319-14C338 11 357 50 360 78C362 90 361 100 351 107C345 111 339 115 332 119C99 267 192 542 359 637Z"  horiz-adv-x="401" vert-adv-y="1000"  />

      
      <glyph glyph-name="uni2d" unicode="&#x2d;" d="M43 371C26 370 31 308 34 276C36 244 51 247 51 247C51 247 127 244 205 238C284 233 366 227 381 229C411 236 411 286 409 327C408 369 386 371 386 371C272 374 157 374 43 371Z"  horiz-adv-x="443" vert-adv-y="1000"  />

      
      <glyph glyph-name="uni2b" unicode="&#x2b;" d="M460 348C457 394 432 396 432 396L336 395C336 430 337 465 338 499C337 517 267 517 230 517C193 517 196 500 196 500C196 500 191 454 185 394L56 392C38 390 42 320 44 283C45 247 62 250 62 250C62 250 112 247 176 243C174 184 174 135 177 123C186 89 244 95 290 100C338 104 339 128 339 128C338 164 337 199 336 234C385 232 424 232 433 234C467 243 464 300 460 348Z"  horiz-adv-x="506" vert-adv-y="1000"  />

      
      <glyph glyph-name="unid7" unicode="&#xd7;" d="M411 201C440 239 423 256 423 256L349 319C373 345 395 371 419 396C430 410 377 457 350 480C322 505 313 490 313 490C313 490 278 459 234 416L137 499C123 511 79 455 55 426C33 398 48 389 48 389C48 389 84 353 128 309C89 265 56 228 51 218C36 186 83 152 122 125C160 99 177 116 177 116C198 143 221 171 244 197C279 164 308 139 318 133C348 118 384 163 411 201Z"  horiz-adv-x="475" vert-adv-y="1000"  />

      
      <glyph glyph-name="uni3d" unicode="&#x3d;" d="M50 441C34 439 40 394 42 371C44 347 58 350 58 350C58 350 129 347 203 343C276 339 353 335 367 336C395 341 395 378 394 408C393 438 372 440 372 440C265 442 157 442 50 441ZM50 274C34 272 40 228 42 204C44 180 58 183 58 183C58 183 129 180 203 175C276 173 353 168 367 170C395 174 395 211 394 242C393 271 372 273 372 273C265 276 157 276 50 274Z"  horiz-adv-x="437" vert-adv-y="1000"  />

      
      <glyph glyph-name="uni2c" unicode="&#x2c;" d="M29-6C28-15 36-18 64-26C101-33 117-4 131 19C147 47 171 104 181 137C188 159 187 172 165 179C150 184 129 186 104 187C66 188 62 156 62 156Z"  horiz-adv-x="220" vert-adv-y="1000"  />

      
      <glyph glyph-name="uni2f" unicode="&#x2f;" d="M431 684C441 717 374 737 339 748C304 761 296 729 296 729C296 729 48 147 34 85C19 25 75 8 120-4C166-16 184 26 184 26Z"  horiz-adv-x="461" vert-adv-y="1000"  />

      
      <glyph glyph-name="uni27" unicode="&#x27;" d="M31 572C29 537 41 534 57 532C61 532 74 530 85 530C107 530 112 547 118 562C133 601 152 669 160 706C173 756 111 748 79 749C44 749 42 737 41 716Z"  horiz-adv-x="199" vert-adv-y="1000"  />

      
      <glyph glyph-name="unidf" unicode="&#xdf;" d="M528 281L500 312C427 394 457 407 488 452C539 526 544 649 466 706C362 782 201 751 124 655C71 590 47 499 40 423C29 288 36 154 46 21C51-29 121-19 157-14C175-12 183 1 185 14C188 26 187 37 187 37C187 37 186 51 185 77C185 169 182 250 185 331C189 427 205 597 299 630C334 643 370 633 374 580C375 560 370 538 360 516C348 488 337 473 328 462C285 408 277 353 313 304C343 263 379 234 410 197C441 161 443 133 310 144C282 142 259 126 256 102C247 22 267-9 340-17C394-23 476-22 533 6C581 31 599 73 600 118C600 181 566 235 528 281Z"  horiz-adv-x="633" vert-adv-y="1000"  />

      
      <glyph glyph-name="unif0" unicode="&#xf0;" d="M452 595C468 603 480 607 484 610C505 624 489 665 474 697C467 713 458 719 451 722C448 723 444 723 442 723C440 723 438 723 438 723C411 711 383 698 358 683C271 733 201 754 132 758C111 759 95 753 84 745C57 723 59 669 64 642C68 626 92 619 106 617C148 608 189 605 226 585C204 566 185 544 166 521C155 507 199 477 221 460C234 450 248 450 257 463C291 495 306 507 322 519C338 501 349 481 357 460L362 448C225 453 54 380 32 235C18 151 57 69 135 26C245-36 379 1 453 96C545 214 553 494 452 595ZM372 315C370 269 347 192 296 164C253 140 207 168 202 207C192 286 321 313 372 315Z"  horiz-adv-x="561" vert-adv-y="1000"  />

      
      <glyph glyph-name="uni29" unicode="&#x29;" d="M52 637C215 542 296 267 57 119C50 115 44 111 38 107C27 100 26 90 27 78C29 50 47 11 64-14C80-35 111-29 139-15C274 59 370 195 367 378C364 543 271 678 149 759C132 770 114 767 103 754C77 726 22 655 52 637Z"  horiz-adv-x="401" vert-adv-y="1000"  />

      
      <glyph glyph-name="uni22" unicode="&#x22;" d="M191 572C189 537 201 534 217 532C221 532 234 530 245 530C267 530 272 547 278 562C293 601 312 669 320 706C333 756 271 748 239 749C204 749 202 737 201 716ZM28 572C26 537 38 534 54 532C58 532 71 530 82 530C104 530 109 547 115 562C130 601 149 669 157 706C170 756 108 748 76 749C41 749 39 737 38 716Z"  horiz-adv-x="359" vert-adv-y="1000"  />

      
      <glyph glyph-name="uni2e" unicode="&#x2e;" d="M178 58C178 94 145 123 105 123C65 123 32 94 32 58C32 23 65-5 105-5C145-5 178 23 178 58Z"  horiz-adv-x="214" vert-adv-y="1000"  />

      
      <glyph glyph-name="unif7" unicode="&#xf7;" d="M43 371C26 370 31 308 34 276C36 244 51 247 51 247C51 247 127 244 205 238C284 233 366 227 381 229C411 236 411 286 409 327C408 369 386 371 386 371C272 374 157 374 43 371ZM279 458C279 489 250 514 216 514C182 514 154 489 154 458C154 429 182 405 216 405C250 405 279 429 279 458ZM279 153C279 183 250 208 216 208C182 208 154 183 154 153C154 123 182 99 216 99C250 99 279 123 279 153Z"  horiz-adv-x="443" vert-adv-y="1000"  />

      
      <glyph glyph-name="uni43" unicode="&#x43;" d="M372 535C369 468 476 459 506 512C517 533 516 558 511 584C502 625 483 669 453 701C374 786 234 749 159 671C78 586 24 465 22 343C22 235 59 122 134 53C235-40 472-13 523 133C544 194 521 243 445 243C419 242 401 228 367 194C321 149 247 147 210 210C152 310 176 492 268 573C308 609 374 612 372 535Z"  horiz-adv-x="554" vert-adv-y="1000"  />

      
      <glyph glyph-name="unic6" unicode="&#xc6;" d="M726 153C651 155 549 153 480 146C478 197 477 247 478 299C545 294 660 289 673 293C701 303 716 435 666 442L480 441L484 601C552 600 721 588 741 593C774 608 775 712 759 740C752 754 742 756 742 756C638 757 502 754 394 749C385 749 377 748 369 747C316 761 260 753 214 725C60 626 33 366 23 210C19 148 18 93 18 52C19 18 36 3 59-2C82-9 108-5 126-4C165 0 170 99 172 124C207 124 263 125 317 123C319 82 322 50 326 39C345-13 393-12 435-8C522-1 601-2 679-8C707-11 728-13 735-11C761-4 767 53 769 100C771 142 765 153 726 153ZM317 280C270 279 223 276 176 272C195 468 259 582 313 581C316 581 319 580 322 580C318 480 317 380 317 280Z"  horiz-adv-x="801" vert-adv-y="1000"  />

      
      <glyph glyph-name="unie6" unicode="&#xe6;" d="M546 533L530 527C512 541 462 543 431 545C418 546 409 543 405 540C316 564 223 553 150 502C-55 345 16-24 285-1C315 2 345 8 374 15C391-15 442-9 483-3C503 0 514 6 520 14C529 10 538 7 548 4C586-7 629-9 669-1C733 11 819 63 819 134C819 192 738 230 702 177C680 145 650 133 622 135C551 140 527 204 529 268C556 266 601 264 650 262C723 259 800 259 813 264C828 267 834 280 836 297C854 477 708 581 546 533ZM381 395C371 326 369 258 365 190C117-2 141 491 381 395ZM549 366C580 441 679 458 692 369C644 367 597 366 549 366Z"  horiz-adv-x="874" vert-adv-y="1000"  />

      
      <glyph glyph-name="unic7" unicode="&#xc7;" d="M372 535C369 468 476 459 506 512C517 533 516 558 511 584C502 625 483 669 453 701C374 786 234 749 159 671C78 586 24 465 22 343C22 235 59 122 134 53C146 42 160 32 176 24C172 7 168-14 162-28C156-47 156-109 184-109C209-110 259-100 277-108C310-124 272-166 235-150C218-144 198-146 191-167C182-200 198-224 220-234C255-250 295-244 323-229C361-209 388-166 384-118C380-57 322-24 255-35C258-21 261-9 265 0C370-9 488 34 523 133C544 194 521 243 445 243C419 242 401 228 367 194C321 149 247 147 210 210C152 310 176 492 268 573C308 609 374 612 372 535Z"  horiz-adv-x="554" vert-adv-y="1000"  />

      
      <glyph glyph-name="unie7" unicode="&#xe7;" d="M404 236C387 239 371 236 364 218C341 153 268 108 219 169C169 234 178 366 245 411C288 444 347 434 357 361C359 345 371 342 406 346C439 351 485 376 485 413C485 441 466 474 451 492C358 604 185 574 103 473C1 350 10 158 123 56C148 34 175 16 207 5C205-4 203-13 200-21C196-32 196-69 213-69C229-70 260-64 272-68C292-78 268-103 245-93C235-90 222-91 218-104C212-123 222-138 236-143C258-153 283-149 300-140C324-129 341-103 338-74C336-38 300-18 258-25C259-18 261-12 263-6C320-11 379 5 426 47C463 79 491 123 497 177C502 220 448 229 404 236Z"  horiz-adv-x="535" vert-adv-y="1000"  />

      
      <glyph glyph-name="unid8" unicode="&#xd8;" d="M339-6C425-6 504 35 562 111C617 182 646 275 646 371C646 470 617 562 562 632C504 708 425 750 339 750C254 750 174 708 116 632C61 562 31 470 31 371C31 275 61 182 116 111C174 35 254-6 339-6ZM503 371C503 245 428 138 339 138C330 138 322 139 313 141L436 558C476 515 503 446 503 371ZM339 606C342 606 346 606 349 605C320 518 257 329 221 212C193 254 176 310 176 371C176 499 251 606 339 606Z"  horiz-adv-x="675" vert-adv-y="1000"  />

      
      <glyph glyph-name="unif8" unicode="&#xf8;" d="M273-7C411-7 524 118 524 269C524 420 411 544 273 544C135 544 22 420 22 269C22 118 135-7 273-7ZM273 396C275 396 277 395 280 395C261 338 228 241 206 169C181 193 166 228 166 269C166 339 213 396 273 396ZM381 269C381 199 333 142 273 142L272 142L339 369C365 346 381 309 381 269Z"  horiz-adv-x="548" vert-adv-y="1000"  />

      
      <glyph glyph-name="unid0" unicode="&#xd0;" d="M33 413C19 413 23 375 25 355C27 336 39 338 39 338C39 338 44 338 53 337C52 283 52 229 52 175C51 111 51 61 52 47C57 3 97-9 135-12C186-14 238-4 283 14C653 162 599 727 188 740C167 753 117 748 89 744C52 741 56 711 56 711C56 609 55 511 54 413ZM213 163L211 331C260 328 303 326 312 327C337 331 337 361 335 387C335 412 317 413 317 413C281 414 245 414 209 414C208 474 206 533 204 592C448 540 424 243 213 163Z"  horiz-adv-x="560" vert-adv-y="1000"  />

      
      <glyph glyph-name="unic0" unicode="&#xc0;" d="M231 970C222 977 203 947 192 932C183 916 192 912 192 912C256 863 298 822 366 775C387 766 403 789 415 809C427 829 415 840 415 840C349 890 300 923 231 970ZM416 727C351 763 272 763 211 725C57 626 30 366 20 210C16 148 15 93 15 52C16 18 33 3 56-2C79-9 105-5 123-4C162 0 167 99 169 124C231 124 358 125 425 116C425 112 425 109 425 106C426 46 441 16 461 3C482-11 509-7 531-4C578 9 581 24 586 90C592 206 591 324 573 437C556 552 518 668 416 727ZM173 272C192 468 256 582 310 581C372 580 431 470 424 280C341 283 257 279 173 272Z"  horiz-adv-x="611" vert-adv-y="1000"  />

      
      <glyph glyph-name="unic1" unicode="&#xc1;" d="M378 970C310 923 262 890 195 840C195 840 183 829 195 809C208 789 224 766 245 775C312 824 354 863 418 912C418 912 427 916 418 932C407 947 388 977 378 970ZM416 727C351 763 272 763 211 725C57 626 30 366 20 210C16 148 15 93 15 52C16 18 33 3 56-2C79-9 105-5 123-4C162 0 167 99 169 124C231 124 358 125 425 116C425 112 425 109 425 106C426 46 441 16 461 3C482-11 509-7 531-4C578 9 581 24 586 90C592 206 591 324 573 437C556 552 518 668 416 727ZM173 272C192 468 256 582 310 581C372 580 431 470 424 280C341 283 257 279 173 272Z"  horiz-adv-x="611" vert-adv-y="1000"  />

      
      <glyph glyph-name="unic2" unicode="&#xc2;" d="M451 829L369 995C365 1002 269 999 269 999L169 838C155 811 240 767 262 785C262 785 305 838 337 883C355 840 374 793 379 786C391 774 415 790 435 803C455 817 451 829 451 829ZM416 727C351 763 272 763 211 725C57 626 30 366 20 210C16 148 15 93 15 52C16 18 33 3 56-2C79-9 105-5 123-4C162 0 167 99 169 124C231 124 358 125 425 116C425 112 425 109 425 106C426 46 441 16 461 3C482-11 509-7 531-4C578 9 581 24 586 90C592 206 591 324 573 437C556 552 518 668 416 727ZM173 272C192 468 256 582 310 581C372 580 431 470 424 280C341 283 257 279 173 272Z"  horiz-adv-x="611" vert-adv-y="1000"  />

      
      <glyph glyph-name="unic3" unicode="&#xc3;" d="M159 832C155 810 211 797 223 805C227 808 232 813 234 821C241 846 252 875 270 857C285 842 295 823 309 807C332 782 377 779 409 798C438 815 453 854 454 894C455 927 434 935 399 935C386 935 370 928 370 912C368 879 351 869 342 886C332 904 328 922 318 939C293 976 251 974 221 952C187 926 168 877 159 832ZM416 727C351 763 272 763 211 725C57 626 30 366 20 210C16 148 15 93 15 52C16 18 33 3 56-2C79-9 105-5 123-4C162 0 167 99 169 124C231 124 358 125 425 116C425 112 425 109 425 106C426 46 441 16 461 3C482-11 509-7 531-4C578 9 581 24 586 90C592 206 591 324 573 437C556 552 518 668 416 727ZM173 272C192 468 256 582 310 581C372 580 431 470 424 280C341 283 257 279 173 272Z"  horiz-adv-x="611" vert-adv-y="1000"  />

      
      <glyph glyph-name="unic4" unicode="&#xc4;" d="M294 864C294 900 265 930 229 930C193 930 164 900 164 864C164 829 193 800 229 800C265 800 294 829 294 864ZM447 864C447 900 418 930 382 930C346 930 317 900 317 864C317 829 346 800 382 800C418 800 447 829 447 864ZM416 727C351 763 272 763 211 725C57 626 30 366 20 210C16 148 15 93 15 52C16 18 33 3 56-2C79-9 105-5 123-4C162 0 167 99 169 124C231 124 358 125 425 116C425 112 425 109 425 106C426 46 441 16 461 3C482-11 509-7 531-4C578 9 581 24 586 90C592 206 591 324 573 437C556 552 518 668 416 727ZM173 272C192 468 256 582 310 581C372 580 431 470 424 280C341 283 257 279 173 272Z"  horiz-adv-x="611" vert-adv-y="1000"  />

      
      <glyph glyph-name="unic5" unicode="&#xc5;" d="M305 785C360 785 404 830 404 884C404 938 360 982 305 982C251 982 207 938 207 884C207 830 251 785 305 785ZM305 914C322 914 336 901 336 884C336 867 322 853 305 853C289 853 275 867 275 884C275 901 289 914 305 914ZM416 727C351 763 272 763 211 725C57 626 30 366 20 210C16 148 15 93 15 52C16 18 33 3 56-2C79-9 105-5 123-4C162 0 167 99 169 124C231 124 358 125 425 116C425 112 425 109 425 106C426 46 441 16 461 3C482-11 509-7 531-4C578 9 581 24 586 90C592 206 591 324 573 437C556 552 518 668 416 727ZM173 272C192 468 256 582 310 581C372 580 431 470 424 280C341 283 257 279 173 272Z"  horiz-adv-x="611" vert-adv-y="1000"  />

      
      <glyph glyph-name="unic8" unicode="&#xc8;" d="M182 990C173 997 154 967 143 952C134 936 143 932 143 932C207 883 249 842 317 795C338 786 354 809 366 829C378 849 366 860 366 860C300 910 251 943 182 990ZM438 153C363 155 261 153 192 146C190 197 189 247 190 299C257 294 372 289 385 293C413 303 428 435 378 442L192 441L196 601C264 600 433 588 453 593C486 608 487 712 471 740C464 754 454 756 454 756C350 757 214 754 106 749C73 749 41 738 41 705C28 530 29 348 29 173C29 107 33 55 38 39C57-13 105-12 147-8C234-1 313-2 391-8C419-11 440-13 447-11C473-4 479 53 481 100C483 142 477 153 438 153Z"  horiz-adv-x="513" vert-adv-y="1000"  />

      
      <glyph glyph-name="unic9" unicode="&#xc9;" d="M329 983C261 936 213 903 146 853C146 853 134 842 146 822C159 802 175 779 196 788C263 837 305 876 369 925C369 925 378 929 369 945C358 960 339 990 329 983ZM438 153C363 155 261 153 192 146C190 197 189 247 190 299C257 294 372 289 385 293C413 303 428 435 378 442L192 441L196 601C264 600 433 588 453 593C486 608 487 712 471 740C464 754 454 756 454 756C350 757 214 754 106 749C73 749 41 738 41 705C28 530 29 348 29 173C29 107 33 55 38 39C57-13 105-12 147-8C234-1 313-2 391-8C419-11 440-13 447-11C473-4 479 53 481 100C483 142 477 153 438 153Z"  horiz-adv-x="513" vert-adv-y="1000"  />

      
      <glyph glyph-name="unica" unicode="&#xca;" d="M402 831L320 997C316 1004 220 1001 220 1001L120 840C106 813 191 769 213 787C213 787 256 840 288 885C306 842 325 795 330 788C342 776 366 792 386 805C406 819 402 831 402 831ZM438 153C363 155 261 153 192 146C190 197 189 247 190 299C257 294 372 289 385 293C413 303 428 435 378 442L192 441L196 601C264 600 433 588 453 593C486 608 487 712 471 740C464 754 454 756 454 756C350 757 214 754 106 749C73 749 41 738 41 705C28 530 29 348 29 173C29 107 33 55 38 39C57-13 105-12 147-8C234-1 313-2 391-8C419-11 440-13 447-11C473-4 479 53 481 100C483 142 477 153 438 153Z"  horiz-adv-x="513" vert-adv-y="1000"  />

      
      <glyph glyph-name="unicb" unicode="&#xcb;" d="M245 852C245 888 216 918 180 918C144 918 115 888 115 852C115 817 144 788 180 788C216 788 245 817 245 852ZM398 852C398 888 369 918 333 918C297 918 268 888 268 852C268 817 297 788 333 788C369 788 398 817 398 852ZM438 153C363 155 261 153 192 146C190 197 189 247 190 299C257 294 372 289 385 293C413 303 428 435 378 442L192 441L196 601C264 600 433 588 453 593C486 608 487 712 471 740C464 754 454 756 454 756C350 757 214 754 106 749C73 749 41 738 41 705C28 530 29 348 29 173C29 107 33 55 38 39C57-13 105-12 147-8C234-1 313-2 391-8C419-11 440-13 447-11C473-4 479 53 481 100C483 142 477 153 438 153Z"  horiz-adv-x="513" vert-adv-y="1000"  />

      
      <glyph glyph-name="unicc" unicode="&#xcc;" d="M47 983C38 990 19 960 8 945C-1 929 8 925 8 925C72 876 114 835 182 788C203 779 219 802 231 822C243 842 231 853 231 853C165 903 116 936 47 983ZM189 722C188 755 117 750 80 749C44 748 48 717 48 717C48 717 20 108 28 48C36-13 94-8 141-3C188 1 190 44 190 44L189 722Z"  horiz-adv-x="221" vert-adv-y="1000"  />

      
      <glyph glyph-name="unicd" unicode="&#xcd;" d="M184 970C116 923 68 890 1 840C1 840-11 829 1 809C14 789 30 766 51 775C118 824 160 863 224 912C224 912 233 916 224 932C213 947 194 977 184 970ZM189 722C188 755 117 750 80 749C44 748 48 717 48 717C48 717 20 108 28 48C36-13 94-8 141-3C188 1 190 44 190 44L189 722Z"  horiz-adv-x="221" vert-adv-y="1000"  />

      
      <glyph glyph-name="unice" unicode="&#xce;" d="M257 823L175 989C171 996 75 993 75 993L-25 832C-39 805 46 761 68 779C68 779 111 832 143 877C161 834 180 787 185 780C197 768 221 784 241 797C261 811 257 823 257 823ZM189 722C188 755 117 750 80 749C44 748 48 717 48 717C48 717 20 108 28 48C36-13 94-8 141-3C188 1 190 44 190 44L189 722Z"  horiz-adv-x="221" vert-adv-y="1000"  />

      
      <glyph glyph-name="unicf" unicode="&#xcf;" d="M108 847C108 883 79 913 43 913C7 913-22 883-22 847C-22 812 7 783 43 783C79 783 108 812 108 847ZM261 847C261 883 232 913 196 913C160 913 131 883 131 847C131 812 160 783 196 783C232 783 261 812 261 847ZM189 722C188 755 117 750 80 749C44 748 48 717 48 717C48 717 20 108 28 48C36-13 94-8 141-3C188 1 190 44 190 44L189 722Z"  horiz-adv-x="221" vert-adv-y="1000"  />

      
      <glyph glyph-name="unid1" unicode="&#xd1;" d="M175 828C171 806 227 793 239 801C243 804 248 809 250 817C257 842 268 871 286 853C301 838 311 819 325 803C348 778 393 775 425 794C454 811 469 850 470 890C471 923 450 931 415 931C402 931 386 924 386 908C384 875 367 865 358 882C348 900 344 918 334 935C309 972 267 970 237 948C203 922 184 873 175 828ZM617 695C610 756 552 752 505 748C458 743 455 700 455 700L450 308C369 453 285 596 199 738C188 757 95 750 73 748C37 746 40 715 40 715C40 715 23 107 33 46C41-14 100-9 147-3C193 3 194 46 194 46L187 465C243 356 298 255 351 153C383 91 414 42 424 29C453-14 525 1 566 1C604 2 601 33 601 33C601 33 624 635 617 695Z"  horiz-adv-x="643" vert-adv-y="1000"  />

      
      <glyph glyph-name="unid2" unicode="&#xd2;" d="M263 968C254 975 235 945 224 930C215 914 224 910 224 910C288 861 330 820 398 773C419 764 435 787 447 807C459 827 447 838 447 838C381 888 332 921 263 968ZM339-6C425-6 504 35 562 111C617 182 646 275 646 371C646 470 617 562 562 632C504 708 425 750 339 750C254 750 174 708 116 632C61 562 31 470 31 371C31 275 61 182 116 111C174 35 254-6 339-6ZM339 606C428 606 503 499 503 371C503 245 428 138 339 138C251 138 176 245 176 371C176 499 251 606 339 606Z"  horiz-adv-x="675" vert-adv-y="1000"  />

      
      <glyph glyph-name="unid3" unicode="&#xd3;" d="M410 983C342 936 294 903 227 853C227 853 215 842 227 822C240 802 256 779 277 788C344 837 386 876 450 925C450 925 459 929 450 945C439 960 420 990 410 983ZM339-6C425-6 504 35 562 111C617 182 646 275 646 371C646 470 617 562 562 632C504 708 425 750 339 750C254 750 174 708 116 632C61 562 31 470 31 371C31 275 61 182 116 111C174 35 254-6 339-6ZM339 606C428 606 503 499 503 371C503 245 428 138 339 138C251 138 176 245 176 371C176 499 251 606 339 606Z"  horiz-adv-x="675" vert-adv-y="1000"  />

      
      <glyph glyph-name="unid4" unicode="&#xd4;" d="M483 822L401 988C397 995 301 992 301 992L201 831C187 804 272 760 294 778C294 778 337 831 369 876C387 833 406 786 411 779C423 767 447 783 467 796C487 810 483 822 483 822ZM339-6C425-6 504 35 562 111C617 182 646 275 646 371C646 470 617 562 562 632C504 708 425 750 339 750C254 750 174 708 116 632C61 562 31 470 31 371C31 275 61 182 116 111C174 35 254-6 339-6ZM339 606C428 606 503 499 503 371C503 245 428 138 339 138C251 138 176 245 176 371C176 499 251 606 339 606Z"  horiz-adv-x="675" vert-adv-y="1000"  />

      
      <glyph glyph-name="unid5" unicode="&#xd5;" d="M191 831C187 809 243 796 255 804C259 807 264 812 266 820C273 845 284 874 302 856C317 841 327 822 341 806C364 781 409 778 441 797C470 814 485 853 486 893C487 926 466 934 431 934C418 934 402 927 402 911C400 878 383 868 374 885C364 903 360 921 350 938C325 975 283 973 253 951C219 925 200 876 191 831ZM339-6C425-6 504 35 562 111C617 182 646 275 646 371C646 470 617 562 562 632C504 708 425 750 339 750C254 750 174 708 116 632C61 562 31 470 31 371C31 275 61 182 116 111C174 35 254-6 339-6ZM339 606C428 606 503 499 503 371C503 245 428 138 339 138C251 138 176 245 176 371C176 499 251 606 339 606Z"  horiz-adv-x="675" vert-adv-y="1000"  />

      
      <glyph glyph-name="unid6" unicode="&#xd6;" d="M326 839C326 875 297 905 261 905C225 905 196 875 196 839C196 804 225 775 261 775C297 775 326 804 326 839ZM479 839C479 875 450 905 414 905C378 905 349 875 349 839C349 804 378 775 414 775C450 775 479 804 479 839ZM339-6C425-6 504 35 562 111C617 182 646 275 646 371C646 470 617 562 562 632C504 708 425 750 339 750C254 750 174 708 116 632C61 562 31 470 31 371C31 275 61 182 116 111C174 35 254-6 339-6ZM339 606C428 606 503 499 503 371C503 245 428 138 339 138C251 138 176 245 176 371C176 499 251 606 339 606Z"  horiz-adv-x="675" vert-adv-y="1000"  />

      
      <glyph glyph-name="unid9" unicode="&#xd9;" d="M261 972C252 979 233 949 222 934C213 918 222 914 222 914C286 865 328 824 396 777C417 768 433 791 445 811C457 831 445 842 445 842C379 892 330 925 261 972ZM202 688C205 766 56 767 46 691C31 599-2 326 81 160C126 72 211 2 320-1C494-6 594 143 622 300C641 417 645 583 608 706C586 779 458 758 465 689C477 594 487 405 459 299C418 129 233 100 192 298C179 357 181 423 184 499Z"  horiz-adv-x="671" vert-adv-y="1000"  />

      
      <glyph glyph-name="unida" unicode="&#xda;" d="M408 975C340 928 292 895 225 845C225 845 213 834 225 814C238 794 254 771 275 780C342 829 384 868 448 917C448 917 457 921 448 937C437 952 418 982 408 975ZM202 688C205 766 56 767 46 691C31 599-2 326 81 160C126 72 211 2 320-1C494-6 594 143 622 300C641 417 645 583 608 706C586 779 458 758 465 689C477 594 487 405 459 299C418 129 233 100 192 298C179 357 181 423 184 499Z"  horiz-adv-x="671" vert-adv-y="1000"  />

      
      <glyph glyph-name="unidb" unicode="&#xdb;" d="M481 819L399 985C395 992 299 989 299 989L199 828C185 801 270 757 292 775C292 775 335 828 367 873C385 830 404 783 409 776C421 764 445 780 465 793C485 807 481 819 481 819ZM202 688C205 766 56 767 46 691C31 599-2 326 81 160C126 72 211 2 320-1C494-6 594 143 622 300C641 417 645 583 608 706C586 779 458 758 465 689C477 594 487 405 459 299C418 129 233 100 192 298C179 357 181 423 184 499Z"  horiz-adv-x="671" vert-adv-y="1000"  />

      
      <glyph glyph-name="unidc" unicode="&#xdc;" d="M324 839C324 875 295 905 259 905C223 905 194 875 194 839C194 804 223 775 259 775C295 775 324 804 324 839ZM477 839C477 875 448 905 412 905C376 905 347 875 347 839C347 804 376 775 412 775C448 775 477 804 477 839ZM202 688C205 766 56 767 46 691C31 599-2 326 81 160C126 72 211 2 320-1C494-6 594 143 622 300C641 417 645 583 608 706C586 779 458 758 465 689C477 594 487 405 459 299C418 129 233 100 192 298C179 357 181 423 184 499Z"  horiz-adv-x="671" vert-adv-y="1000"  />

      
      <glyph glyph-name="unidd" unicode="&#xdd;" d="M354 977C286 930 238 897 171 847C171 847 159 836 171 816C184 796 200 773 221 782C288 831 330 870 394 919C394 919 403 923 394 939C383 954 364 984 354 977ZM422 748C385 747 389 710 389 710C389 662 402 587 389 525C364 407 285 384 232 421C162 471 174 623 180 688C181 698 182 707 183 717C184 745 112 748 76 750C54 754 37 736 35 715C-6 444 77 177 345 271C316 171 179 153 105 167C56 176 56 62 81 25C117-28 225-5 266 7C449 79 509 230 524 405C527 441 529 473 531 713C530 752 459 749 422 748Z"  horiz-adv-x="563" vert-adv-y="1000"  />

      
      <glyph glyph-name="unie0" unicode="&#xe0;" d="M299 781C290 788 271 758 260 743C251 727 260 723 260 723C324 674 366 633 434 586C455 577 471 600 483 620C495 640 483 651 483 651C417 701 368 734 299 781ZM544 516C545 540 476 543 438 545C425 546 416 543 412 540C323 564 230 553 157 502C-48 345 23-24 292-1C322 2 352 8 381 15C398-15 449-9 490-3C536 4 537 35 537 35C527 196 531 355 544 516ZM388 395C383 364 381 329 378 293C375 259 374 224 372 190C124-2 148 491 388 395Z"  horiz-adv-x="580" vert-adv-y="1000"  />

      
      <glyph glyph-name="unie1" unicode="&#xe1;" d="M445 782C377 735 329 702 262 652C262 652 250 641 262 621C275 601 291 578 312 587C379 636 421 675 485 724C485 724 494 728 485 744C474 759 455 789 445 782ZM544 516C545 540 476 543 438 545C425 546 416 543 412 540C323 564 230 553 157 502C-48 345 23-24 292-1C322 2 352 8 381 15C398-15 449-9 490-3C536 4 537 35 537 35C527 196 531 355 544 516ZM388 395C383 364 381 329 378 293C375 259 374 224 372 190C124-2 148 491 388 395Z"  horiz-adv-x="580" vert-adv-y="1000"  />

      
      <glyph glyph-name="unie2" unicode="&#xe2;" d="M528 624L446 790C442 797 346 794 346 794L246 633C232 606 317 562 339 580C339 580 382 633 414 678C432 635 451 588 456 581C468 569 492 585 512 598C532 612 528 624 528 624ZM544 516C545 540 476 543 438 545C425 546 416 543 412 540C323 564 230 553 157 502C-48 345 23-24 292-1C322 2 352 8 381 15C398-15 449-9 490-3C536 4 537 35 537 35C527 196 531 355 544 516ZM388 395C383 364 381 329 378 293C375 259 374 224 372 190C124-2 148 491 388 395Z"  horiz-adv-x="580" vert-adv-y="1000"  />

      
      <glyph glyph-name="unie3" unicode="&#xe3;" d="M218 634C214 612 270 599 282 607C286 610 291 615 293 623C300 648 311 677 329 659C344 644 354 625 368 609C391 584 436 581 468 600C497 617 512 656 513 696C514 729 493 737 458 737C445 737 429 730 429 714C427 681 410 671 401 688C391 706 387 724 377 741C352 778 310 776 280 754C246 728 227 679 218 634ZM544 516C545 540 476 543 438 545C425 546 416 543 412 540C323 564 230 553 157 502C-48 345 23-24 292-1C322 2 352 8 381 15C398-15 449-9 490-3C536 4 537 35 537 35C527 196 531 355 544 516ZM388 395C383 364 381 329 378 293C375 259 374 224 372 190C124-2 148 491 388 395Z"  horiz-adv-x="580" vert-adv-y="1000"  />

      
      <glyph glyph-name="unie4" unicode="&#xe4;" d="M356 667C356 703 327 733 291 733C255 733 226 703 226 667C226 632 255 603 291 603C327 603 356 632 356 667ZM509 667C509 703 480 733 444 733C408 733 379 703 379 667C379 632 408 603 444 603C480 603 509 632 509 667ZM544 516C545 540 476 543 438 545C425 546 416 543 412 540C323 564 230 553 157 502C-48 345 23-24 292-1C322 2 352 8 381 15C398-15 449-9 490-3C536 4 537 35 537 35C527 196 531 355 544 516ZM388 395C383 364 381 329 378 293C375 259 374 224 372 190C124-2 148 491 388 395Z"  horiz-adv-x="580" vert-adv-y="1000"  />

      
      <glyph glyph-name="unie5" unicode="&#xe5;" d="M390 586C445 586 489 631 489 685C489 739 445 783 390 783C336 783 292 739 292 685C292 631 336 586 390 586ZM390 715C407 715 421 702 421 685C421 668 407 654 390 654C374 654 360 668 360 685C360 702 374 715 390 715ZM544 516C545 540 476 543 438 545C425 546 416 543 412 540C323 564 230 553 157 502C-48 345 23-24 292-1C322 2 352 8 381 15C398-15 449-9 490-3C536 4 537 35 537 35C527 196 531 355 544 516ZM388 395C383 364 381 329 378 293C375 259 374 224 372 190C124-2 148 491 388 395Z"  horiz-adv-x="580" vert-adv-y="1000"  />

      
      <glyph glyph-name="unie8" unicode="&#xe8;" d="M192 786C183 793 164 763 153 748C144 732 153 728 153 728C217 679 259 638 327 591C348 582 364 605 376 625C388 645 376 656 376 656C310 706 261 739 192 786ZM205 533C146 514 103 476 73 429C29 357 21 264 42 187C65 104 122 31 207 4C245-7 288-9 328-1C392 11 478 63 478 134C478 192 397 230 361 177C339 145 309 133 281 135C210 140 186 204 188 268C215 266 260 264 309 262C382 259 459 259 472 264C487 267 493 280 495 297C513 477 367 581 205 533ZM208 366C239 441 338 458 351 369C303 367 256 366 208 366Z"  horiz-adv-x="533" vert-adv-y="1000"  />

      
      <glyph glyph-name="unie9" unicode="&#xe9;" d="M339 776C271 729 223 696 156 646C156 646 144 635 156 615C169 595 185 572 206 581C273 630 315 669 379 718C379 718 388 722 379 738C368 753 349 783 339 776ZM205 533C146 514 103 476 73 429C29 357 21 264 42 187C65 104 122 31 207 4C245-7 288-9 328-1C392 11 478 63 478 134C478 192 397 230 361 177C339 145 309 133 281 135C210 140 186 204 188 268C215 266 260 264 309 262C382 259 459 259 472 264C487 267 493 280 495 297C513 477 367 581 205 533ZM208 366C239 441 338 458 351 369C303 367 256 366 208 366Z"  horiz-adv-x="533" vert-adv-y="1000"  />

      
      <glyph glyph-name="uniea" unicode="&#xea;" d="M412 617L330 783C326 790 230 787 230 787L130 626C116 599 201 555 223 573C223 573 266 626 298 671C316 628 335 581 340 574C352 562 376 578 396 591C416 605 412 617 412 617ZM205 533C146 514 103 476 73 429C29 357 21 264 42 187C65 104 122 31 207 4C245-7 288-9 328-1C392 11 478 63 478 134C478 192 397 230 361 177C339 145 309 133 281 135C210 140 186 204 188 268C215 266 260 264 309 262C382 259 459 259 472 264C487 267 493 280 495 297C513 477 367 581 205 533ZM208 366C239 441 338 458 351 369C303 367 256 366 208 366Z"  horiz-adv-x="533" vert-adv-y="1000"  />

      
      <glyph glyph-name="unieb" unicode="&#xeb;" d="M255 639C255 675 226 705 190 705C154 705 125 675 125 639C125 604 154 575 190 575C226 575 255 604 255 639ZM408 639C408 675 379 705 343 705C307 705 278 675 278 639C278 604 307 575 343 575C379 575 408 604 408 639ZM205 533C146 514 103 476 73 429C29 357 21 264 42 187C65 104 122 31 207 4C245-7 288-9 328-1C392 11 478 63 478 134C478 192 397 230 361 177C339 145 309 133 281 135C210 140 186 204 188 268C215 266 260 264 309 262C382 259 459 259 472 264C487 267 493 280 495 297C513 477 367 581 205 533ZM208 366C239 441 338 458 351 369C303 367 256 366 208 366Z"  horiz-adv-x="533" vert-adv-y="1000"  />

      
      <glyph glyph-name="uniec" unicode="&#xec;" d="M198 504C197 525 128 523 91 523C55 524 58 504 58 504C58 504 48 354 43 252C36 151 34 45 39 26C47-11 106-7 151-3C197 4 199 31 199 31C195 170 195 363 198 504ZM46 747C37 754 18 724 7 709C-2 693 7 689 7 689C71 640 113 599 181 552C202 543 218 566 230 586C242 606 230 617 230 617C164 667 115 700 46 747Z"  horiz-adv-x="239" vert-adv-y="1000"  />

      
      <glyph glyph-name="unied" unicode="&#xed;" d="M198 504C197 525 128 523 91 523C55 524 58 504 58 504C58 504 48 354 43 252C36 151 34 45 39 26C47-11 106-7 151-3C197 4 199 31 199 31C195 170 195 363 198 504ZM193 747C125 700 77 667 10 617C10 617-2 606 10 586C23 566 39 543 60 552C127 601 169 640 233 689C233 689 242 693 233 709C222 724 203 754 193 747Z"  horiz-adv-x="239" vert-adv-y="1000"  />

      
      <glyph glyph-name="uniee" unicode="&#xee;" d="M198 504C197 525 128 523 91 523C55 524 58 504 58 504C58 504 48 354 43 252C36 151 34 45 39 26C47-11 106-7 151-3C197 4 199 31 199 31C195 170 195 363 198 504ZM266 615L184 781C180 788 84 785 84 785L-16 624C-30 597 55 553 77 571C77 571 120 624 152 669C170 626 189 579 194 572C206 560 230 576 250 589C270 603 266 615 266 615Z"  horiz-adv-x="239" vert-adv-y="1000"  />

      
      <glyph glyph-name="unief" unicode="&#xef;" d="M198 504C197 525 128 523 91 523C55 524 58 504 58 504C58 504 48 354 43 252C36 151 34 45 39 26C47-11 106-7 151-3C197 4 199 31 199 31C195 170 195 363 198 504ZM108 639C108 675 79 705 43 705C7 705-22 675-22 639C-22 604 7 575 43 575C79 575 108 604 108 639ZM261 639C261 675 232 705 196 705C160 705 131 675 131 639C131 604 160 575 196 575C232 575 261 604 261 639Z"  horiz-adv-x="239" vert-adv-y="1000"  />

      
      <glyph glyph-name="unif1" unicode="&#xf1;" d="M154 634C150 612 206 599 218 607C222 610 227 615 229 623C236 648 247 677 265 659C280 644 290 625 304 609C327 584 372 581 404 600C433 617 448 656 449 696C450 729 429 737 394 737C381 737 365 730 365 714C363 681 346 671 337 688C327 706 323 724 313 741C288 778 246 776 216 754C182 728 163 679 154 634ZM186 507L186 540C185 563 114 559 78 557C41 555 44 533 44 533C43 507 22 59 31 34C38-9 97-8 144-3C189 1 192 34 192 34L189 244C200 450 376 436 399 302C406 261 399 217 394 170C389 127 382 48 406 17C427-11 473-8 509-3C555 2 558 48 558 68L560 231C560 331 545 398 516 444C447 553 287 550 186 507Z"  horiz-adv-x="601" vert-adv-y="1000"  />

      
      <glyph glyph-name="unif2" unicode="&#xf2;" d="M200 763C191 770 172 740 161 725C152 709 161 705 161 705C225 656 267 615 335 568C356 559 372 582 384 602C396 622 384 633 384 633C318 683 269 716 200 763ZM273-7C411-7 524 118 524 269C524 420 411 544 273 544C135 544 22 420 22 269C22 118 135-7 273-7ZM273 396C333 396 381 339 381 269C381 199 333 142 273 142C213 142 166 199 166 269C166 339 213 396 273 396Z"  horiz-adv-x="548" vert-adv-y="1000"  />

      
      <glyph glyph-name="unif3" unicode="&#xf3;" d="M347 783C279 736 231 703 164 653C164 653 152 642 164 622C177 602 193 579 214 588C281 637 323 676 387 725C387 725 396 729 387 745C376 760 357 790 347 783ZM273-7C411-7 524 118 524 269C524 420 411 544 273 544C135 544 22 420 22 269C22 118 135-7 273-7ZM273 396C333 396 381 339 381 269C381 199 333 142 273 142C213 142 166 199 166 269C166 339 213 396 273 396Z"  horiz-adv-x="548" vert-adv-y="1000"  />

      
      <glyph glyph-name="unif4" unicode="&#xf4;" d="M420 620L338 786C334 793 238 790 238 790L138 629C124 602 209 558 231 576C231 576 274 629 306 674C324 631 343 584 348 577C360 565 384 581 404 594C424 608 420 620 420 620ZM273-7C411-7 524 118 524 269C524 420 411 544 273 544C135 544 22 420 22 269C22 118 135-7 273-7ZM273 396C333 396 381 339 381 269C381 199 333 142 273 142C213 142 166 199 166 269C166 339 213 396 273 396Z"  horiz-adv-x="548" vert-adv-y="1000"  />

      
      <glyph glyph-name="unif5" unicode="&#xf5;" d="M128 607C124 585 180 572 192 580C196 583 201 588 203 596C210 621 221 650 239 632C254 617 264 598 278 582C301 557 346 554 378 573C407 590 422 629 423 669C424 702 403 710 368 710C355 710 339 703 339 687C337 654 320 644 311 661C301 679 297 697 287 714C262 751 220 749 190 727C156 701 137 652 128 607ZM273-7C411-7 524 118 524 269C524 420 411 544 273 544C135 544 22 420 22 269C22 118 135-7 273-7ZM273 396C333 396 381 339 381 269C381 199 333 142 273 142C213 142 166 199 166 269C166 339 213 396 273 396Z"  horiz-adv-x="548" vert-adv-y="1000"  />

      
      <glyph glyph-name="unif6" unicode="&#xf6;" d="M262 639C262 675 233 705 197 705C161 705 132 675 132 639C132 604 161 575 197 575C233 575 262 604 262 639ZM415 639C415 675 386 705 350 705C314 705 285 675 285 639C285 604 314 575 350 575C386 575 415 604 415 639ZM273-7C411-7 524 118 524 269C524 420 411 544 273 544C135 544 22 420 22 269C22 118 135-7 273-7ZM273 396C333 396 381 339 381 269C381 199 333 142 273 142C213 142 166 199 166 269C166 339 213 396 273 396Z"  horiz-adv-x="548" vert-adv-y="1000"  />

      
      <glyph glyph-name="uniff" unicode="&#xff;" d="M279 660C279 696 250 726 214 726C178 726 149 696 149 660C149 625 178 596 214 596C250 596 279 625 279 660ZM432 660C432 696 403 726 367 726C331 726 302 696 302 660C302 625 331 596 367 596C403 596 432 625 432 660ZM418 553C382 550 386 507 386 507C386 507 384 452 382 369C376 230 206 146 186 318C176 385 191 455 196 519C197 548 126 548 90 550C53 552 44 523 44 523C40 491 36 457 33 423C21 276 57 124 214 90C271 78 331 92 378 144C376 93 383 31 374-14C350-128 210-97 151-75C86-64 60-188 113-218C178-255 257-260 322-249C424-230 488-158 515-73C529-29 530 11 527 516C525 561 455 555 418 553Z"  horiz-adv-x="563" vert-adv-y="1000"  />

      
      <glyph glyph-name="unifd" unicode="&#xfd;" d="M370 777C302 730 254 697 187 647C187 647 175 636 187 616C200 596 216 573 237 582C304 631 346 670 410 719C410 719 419 723 410 739C399 754 380 784 370 777ZM418 553C382 550 386 507 386 507C386 507 384 452 382 369C376 230 206 146 186 318C176 385 191 455 196 519C197 548 126 548 90 550C53 552 44 523 44 523C40 491 36 457 33 423C21 276 57 124 214 90C271 78 331 92 378 144C376 93 383 31 374-14C350-128 210-97 151-75C86-64 60-188 113-218C178-255 257-260 322-249C424-230 488-158 515-73C529-29 530 11 527 516C525 561 455 555 418 553Z"  horiz-adv-x="563" vert-adv-y="1000"  />

      
      <glyph glyph-name="unifc" unicode="&#xfc;" d="M269 648C269 684 240 714 204 714C168 714 139 684 139 648C139 613 168 584 204 584C240 584 269 613 269 648ZM422 648C422 684 393 714 357 714C321 714 292 684 292 648C292 613 321 584 357 584C393 584 422 613 422 648ZM529 521C529 545 459 547 423 549C385 551 382 527 382 527C370 415 382 304 332 203C279 96 186 145 186 321C186 386 193 446 203 504C206 541 136 545 99 548C76 549 63 534 59 514C40 436 35 356 36 279C38 104 153-78 358 26C370-12 425-8 468-3C515 4 516 34 516 34C512 197 516 359 529 521Z"  horiz-adv-x="561" vert-adv-y="1000"  />

      
      <glyph glyph-name="unifb" unicode="&#xfb;" d="M426 629L344 795C340 802 244 799 244 799L144 638C130 611 215 567 237 585C237 585 280 638 312 683C330 640 349 593 354 586C366 574 390 590 410 603C430 617 426 629 426 629ZM529 521C529 545 459 547 423 549C385 551 382 527 382 527C370 415 382 304 332 203C279 96 186 145 186 321C186 386 193 446 203 504C206 541 136 545 99 548C76 549 63 534 59 514C40 436 35 356 36 279C38 104 153-78 358 26C370-12 425-8 468-3C515 4 516 34 516 34C512 197 516 359 529 521Z"  horiz-adv-x="561" vert-adv-y="1000"  />

      
      <glyph glyph-name="unifa" unicode="&#xfa;" d="M353 785C285 738 237 705 170 655C170 655 158 644 170 624C183 604 199 581 220 590C287 639 329 678 393 727C393 727 402 731 393 747C382 762 363 792 353 785ZM529 521C529 545 459 547 423 549C385 551 382 527 382 527C370 415 382 304 332 203C279 96 186 145 186 321C186 386 193 446 203 504C206 541 136 545 99 548C76 549 63 534 59 514C40 436 35 356 36 279C38 104 153-78 358 26C370-12 425-8 468-3C515 4 516 34 516 34C512 197 516 359 529 521Z"  horiz-adv-x="561" vert-adv-y="1000"  />

      
      <glyph glyph-name="unif9" unicode="&#xf9;" d="M206 786C197 793 178 763 167 748C158 732 167 728 167 728C231 679 273 638 341 591C362 582 378 605 390 625C402 645 390 656 390 656C324 706 275 739 206 786ZM529 521C529 545 459 547 423 549C385 551 382 527 382 527C370 415 382 304 332 203C279 96 186 145 186 321C186 386 193 446 203 504C206 541 136 545 99 548C76 549 63 534 59 514C40 436 35 356 36 279C38 104 153-78 358 26C370-12 425-8 468-3C515 4 516 34 516 34C512 197 516 359 529 521Z"  horiz-adv-x="561" vert-adv-y="1000"  />

      
      <glyph glyph-name="uni41" unicode="&#x41;" d="M416 727C351 763 272 763 211 725C57 626 30 366 20 210C16 148 15 93 15 52C16 18 33 3 56-2C79-9 105-5 123-4C162 0 167 99 169 124C231 124 358 125 425 116C425 112 425 109 425 106C426 46 441 16 461 3C482-11 509-7 531-4C578 9 581 24 586 90C592 206 591 324 573 437C556 552 518 668 416 727ZM173 272C192 468 256 582 310 581C372 580 431 470 424 280C341 283 257 279 173 272Z"  horiz-adv-x="611" vert-adv-y="1000"  />

      
      <glyph glyph-name="uni42" unicode="&#x42;" d="M446 385C508 460 515 525 501 582C470 709 289 762 154 743C130 752 87 745 61 741C25 737 29 706 29 706C38 603 34 499 33 398C32 321 29 241 27 176C26 112 24 64 26 50C31-11 89-12 137-10C143-9 149-8 155-6C300-21 500 33 525 196C536 267 504 340 446 385ZM187 444C184 497 183 547 179 599C386 626 381 434 187 444ZM190 154C190 197 190 239 190 282C414 336 408 131 190 154Z"  horiz-adv-x="558" vert-adv-y="1000"  />

      
      <glyph glyph-name="uni44" unicode="&#x44;" d="M166 740C145 753 95 748 67 744C30 741 34 711 34 711C35 526 30 350 30 175C29 111 29 61 30 47C35 3 75-9 113-12C164-14 216-4 261 14C631 162 577 727 166 740ZM191 163C190 306 188 450 182 592C426 540 402 243 191 163Z"  horiz-adv-x="538" vert-adv-y="1000"  />

      
      <glyph glyph-name="uni0178" unicode="&#x0178;" d="M294 864C294 900 265 930 229 930C193 930 164 900 164 864C164 829 193 800 229 800C265 800 294 829 294 864ZM447 864C447 900 418 930 382 930C346 930 317 900 317 864C317 829 346 800 382 800C418 800 447 829 447 864ZM422 748C385 747 389 710 389 710C389 662 402 587 389 525C364 407 285 384 232 421C162 471 174 623 180 688C181 698 182 707 183 717C184 745 112 748 76 750C54 754 37 736 35 715C-6 444 77 177 345 271C316 171 179 153 105 167C56 176 56 62 81 25C117-28 225-5 266 7C449 79 509 230 524 405C527 441 529 473 531 713C530 752 459 749 422 748Z"  horiz-adv-x="563" vert-adv-y="1000"  />

      

  </font>
</defs>
</svg>
