<svg width="967" height="598" viewBox="0 0 967 598" fill="none" xmlns="http://www.w3.org/2000/svg">
<path d="M966.211 316.975C968.417 411.706 896.059 468.64 838.182 525.891C798.787 564.971 749.66 598.566 682.155 597.762C569.839 596.322 439.266 501.601 320.444 479.681C278.35 471.967 238.062 473.411 194.943 458.459C117.011 431.446 45.5937 352.867 17.5604 278.454C-10.4729 204.04 -1.19483 135.029 25.5411 80.8189C45.984 39.2844 79.5384 3.27968 133.468 0.999038C203.341 -1.91016 290.44 54.478 347.263 122.026C387.557 169.881 428.809 232.569 482.806 244.025C514.871 250.785 537.86 234.885 553.585 215.794C588.393 173.657 601.59 114.048 640.132 75.2301C678.673 36.4117 759.36 26.5806 822.129 81.1442C840.303 96.8886 854.597 116.124 867.979 135.162C912.342 198.371 964.917 267.551 966.074 316.955" fill="url(#paint0_linear_129_663)"/>
<defs>
<linearGradient id="paint0_linear_129_663" x1="237.598" y1="520.966" x2="714.056" y2="-15.1134" gradientUnits="userSpaceOnUse">
<stop stop-color="#FBDA61" stop-opacity="0.79"/>
<stop offset="0.3" stop-color="#FCAA89"/>
<stop offset="0.61" stop-color="#FD7EAD"/>
<stop offset="0.86" stop-color="#FE63C4"/>
<stop offset="1" stop-color="#FF5ACD"/>
</linearGradient>
</defs>
</svg>
