<svg width="558" height="977" viewBox="0 0 558 977" fill="none" xmlns="http://www.w3.org/2000/svg">
<path d="M310.037 975.44C216.065 987.603 151.831 921.639 88.8067 870.109C45.7977 835.045 7.21971 789.726 0.914584 722.511C-9.47359 610.668 70.9793 470.852 80.2719 350.383C83.5127 307.71 77.8369 267.798 88.1685 223.344C106.829 143.002 177.455 63.7121 248.505 28.003C319.555 -7.70619 389.16 -5.74265 445.883 15.1396C489.338 31.0978 528.674 60.6765 536.618 114.067C546.864 183.245 499.956 275.795 438.764 339.412C395.415 384.518 337.416 432.138 331.707 487.042C328.359 519.639 346.591 540.828 367.23 554.456C412.796 584.636 473.463 591.487 516.122 625.729C558.781 659.971 577.049 739.175 529.395 807.338C515.65 827.068 498.026 843.307 480.502 858.618C422.313 909.387 359.05 968.951 310.043 975.301" fill="url(#paint0_linear_54_75)"/>
<defs>
<linearGradient id="paint0_linear_54_75" x1="30.4974" y1="272.342" x2="613.744" y2="689.735" gradientUnits="userSpaceOnUse">
<stop stop-color="#FBDA61" stop-opacity="0.79"/>
<stop offset="0.3" stop-color="#FCAA89"/>
<stop offset="0.61" stop-color="#FD7EAD"/>
<stop offset="0.86" stop-color="#FE63C4"/>
<stop offset="1" stop-color="#FF5ACD"/>
</linearGradient>
</defs>
</svg>
