<svg width="72" height="74" viewBox="0 0 72 74" fill="none" xmlns="http://www.w3.org/2000/svg">
<g filter="url(#filter0_d_53_74)">
<path d="M20.125 69C23.3006 69 25.875 66.4256 25.875 63.25C25.875 60.0744 23.3006 57.5 20.125 57.5C16.9494 57.5 14.375 60.0744 14.375 63.25C14.375 66.4256 16.9494 69 20.125 69Z" fill="white"/>
<path d="M48.875 69C52.0506 69 54.625 66.4256 54.625 63.25C54.625 60.0744 52.0506 57.5 48.875 57.5C45.6994 57.5 43.125 60.0744 43.125 63.25C43.125 66.4256 45.6994 69 48.875 69Z" fill="white"/>
<path d="M56.7812 37.8407C56.3642 39.3592 55.4601 40.6988 54.2078 41.6534C52.9555 42.6081 51.4243 43.1251 49.8496 43.125H20.7489C20.5138 43.123 20.2879 43.0336 20.1151 42.8742C19.9424 42.7147 19.8352 42.4967 19.8145 42.2625L17.3535 23H30.1875C31.3312 23 32.4281 22.5456 33.2369 21.7369C34.0456 20.9281 34.5 19.8312 34.5 18.6875C34.5 17.5437 34.0456 16.4468 33.2369 15.6381C32.4281 14.8293 31.3312 14.375 30.1875 14.375H16.2524L15.4991 8.44962C15.2258 6.1221 14.1075 3.9759 12.3565 2.41833C10.6055 0.860757 8.34364 0.000209881 6.00012 0L4.3125 0C3.16875 0 2.07185 0.454351 1.2631 1.2631C0.454351 2.07185 0 3.16875 0 4.3125C0 5.45624 0.454351 6.55314 1.2631 7.36189C2.07185 8.17064 3.16875 8.625 4.3125 8.625H6.00012C6.2352 8.62694 6.46113 8.71635 6.63387 8.87581C6.80661 9.03526 6.91378 9.25332 6.9345 9.4875L11.247 43.2975C11.5197 45.626 12.6381 47.7733 14.3898 49.3315C16.1415 50.8898 18.4044 51.7504 20.7489 51.75H49.8496C53.3113 51.7479 56.6767 50.61 59.4292 48.5108C62.1818 46.4116 64.1694 43.4671 65.0871 40.1292L65.1331 39.9567C65.309 39.3176 65.3352 38.6465 65.2096 37.9956C65.084 37.3446 64.8101 36.7314 64.409 36.2036C64.008 35.6757 63.4907 35.2474 62.8972 34.952C62.3038 34.6565 61.6503 34.5019 60.9873 34.5C60.0439 34.4998 59.1264 34.809 58.3755 35.3802C57.6245 35.9515 57.0817 36.7532 56.8301 37.6625L56.7812 37.8407Z" fill="white"/>
<path d="M64.6875 8.625H60.375V4.3125C60.375 3.16875 59.9206 2.07185 59.1119 1.2631C58.3031 0.454351 57.2062 0 56.0625 0C54.9187 0 53.8218 0.454351 53.0131 1.2631C52.2043 2.07185 51.75 3.16875 51.75 4.3125V8.625H47.4375C46.2938 8.625 45.1969 9.07935 44.3881 9.8881C43.5794 10.6968 43.125 11.7937 43.125 12.9375C43.125 14.0812 43.5794 15.1781 44.3881 15.9869C45.1969 16.7956 46.2938 17.25 47.4375 17.25H51.75V21.5625C51.75 22.7062 52.2043 23.8031 53.0131 24.6119C53.8218 25.4206 54.9187 25.875 56.0625 25.875C57.2062 25.875 58.3031 25.4206 59.1119 24.6119C59.9206 23.8031 60.375 22.7062 60.375 21.5625V17.25H64.6875C65.8312 17.25 66.9281 16.7956 67.7369 15.9869C68.5456 15.1781 69 14.0812 69 12.9375C69 11.7937 68.5456 10.6968 67.7369 9.8881C66.9281 9.07935 65.8312 8.625 64.6875 8.625Z" fill="white"/>
</g>
<defs>
<filter id="filter0_d_53_74" x="0" y="0" width="71.4353" height="73.8706" filterUnits="userSpaceOnUse" color-interpolation-filters="sRGB">
<feFlood flood-opacity="0" result="BackgroundImageFix"/>
<feColorMatrix in="SourceAlpha" type="matrix" values="0 0 0 0 0 0 0 0 0 0 0 0 0 0 0 0 0 0 127 0" result="hardAlpha"/>
<feOffset dx="2.43529" dy="4.87059"/>
<feComposite in2="hardAlpha" operator="out"/>
<feColorMatrix type="matrix" values="0 0 0 0 0 0 0 0 0 0 0 0 0 0 0 0 0 0 0.25 0"/>
<feBlend mode="normal" in2="BackgroundImageFix" result="effect1_dropShadow_53_74"/>
<feBlend mode="normal" in="SourceGraphic" in2="effect1_dropShadow_53_74" result="shape"/>
</filter>
</defs>
</svg>
