<svg width="632" height="876" viewBox="0 0 632 876" fill="none" xmlns="http://www.w3.org/2000/svg">
<path d="M335.882 5.00159C228.09 -37.2654 237.298 201.911 160.8 213.777C-160.259 263.412 92.0936 430.929 130.729 543.925C168.334 653.897 20.8114 801.637 189.326 862.983C281.664 896.564 362.67 859.027 453.463 819.94C544.256 780.853 621.591 684.143 631.185 568.587C637.109 497.082 610.644 415.728 554.687 390.756C535.048 381.992 512.703 380.286 496.026 365.085C468.788 340.19 468.595 291.486 473.424 250.693C478.318 209.9 474.776 127.847 454.815 94.4215C412.187 22.7615 356.23 12.9121 335.882 5.00159Z" fill="url(#paint0_linear_12_11)"/>
<defs>
<linearGradient id="paint0_linear_12_11" x1="-308.104" y1="832.659" x2="522.298" y2="832.659" gradientUnits="userSpaceOnUse">
<stop offset="0.317708" stop-color="#FF5ACD"/>
<stop offset="1" stop-color="#FBDA61" stop-opacity="0.79"/>
</linearGradient>
</defs>
</svg>
